<svg width="42" height="41" viewBox="0 0 42 41" fill="none" xmlns="http://www.w3.org/2000/svg">
<path d="M21.491 13.6638C17.7267 13.6638 14.6547 16.7357 14.6547 20.5C14.6547 24.2643 17.7267 27.3362 21.491 27.3362C25.2553 27.3362 28.3272 24.2643 28.3272 20.5C28.3272 16.7357 25.2553 13.6638 21.491 13.6638ZM41.9946 20.5C41.9946 17.6691 42.0202 14.8638 41.8612 12.038C41.7022 8.75582 40.9535 5.84285 38.5534 3.44273C36.1481 1.03747 33.2403 0.293848 29.9581 0.134865C27.1271 -0.024117 24.3219 0.00152543 21.4961 0.00152543C18.6652 0.00152543 15.8599 -0.024117 13.0341 0.134865C9.75191 0.293848 6.83894 1.0426 4.43882 3.44273C2.03357 5.84798 1.28994 8.75582 1.13096 12.038C0.971977 14.8689 0.997619 17.6742 0.997619 20.5C0.997619 23.3258 0.971977 26.1362 1.13096 28.962C1.28994 32.2442 2.0387 35.1572 4.43882 37.5573C6.84407 39.9625 9.75191 40.7062 13.0341 40.8651C15.865 41.0241 18.6703 40.9985 21.4961 40.9985C24.327 40.9985 27.1323 41.0241 29.9581 40.8651C33.2403 40.7062 36.1532 39.9574 38.5534 37.5573C40.9586 35.152 41.7022 32.2442 41.8612 28.962C42.0253 26.1362 41.9946 23.3309 41.9946 20.5ZM21.491 31.0185C15.6702 31.0185 10.9725 26.3208 10.9725 20.5C10.9725 14.6792 15.6702 9.98152 21.491 9.98152C27.3118 9.98152 32.0094 14.6792 32.0094 20.5C32.0094 26.3208 27.3118 31.0185 21.491 31.0185ZM32.4402 12.0073C31.0812 12.0073 29.9837 10.9098 29.9837 9.55073C29.9837 8.19168 31.0812 7.09419 32.4402 7.09419C33.7993 7.09419 34.8968 8.19168 34.8968 9.55073C34.8972 9.87344 34.8339 10.1931 34.7106 10.4913C34.5873 10.7895 34.4064 11.0605 34.1782 11.2887C33.95 11.5169 33.679 11.6978 33.3808 11.8211C33.0826 11.9444 32.7629 12.0077 32.4402 12.0073Z" fill="white"/>
</svg>
